<svg width="13" height="13" viewBox="0 0 13 13" fill="none" xmlns="http://www.w3.org/2000/svg">
<path d="M11.2447 4.4074C11.2395 4.01523 11.1661 3.62696 11.0277 3.25996C10.9078 2.95039 10.7246 2.66925 10.4898 2.4345C10.2551 2.19974 9.97394 2.01654 9.66437 1.89659C9.30208 1.76059 8.91935 1.68706 8.53246 1.67911C8.03434 1.65685 7.87641 1.65063 6.61194 1.65063C5.34748 1.65063 5.18541 1.65063 4.69091 1.67911C4.30419 1.68712 3.92164 1.76065 3.55952 1.89659C3.2499 2.01645 2.96872 2.19963 2.73395 2.43439C2.49919 2.66916 2.31601 2.95034 2.19615 3.25996C2.05988 3.62197 1.98651 4.00461 1.97919 4.39135C1.95693 4.88999 1.9502 5.04792 1.9502 6.31238C1.9502 7.57685 1.9502 7.7384 1.97919 8.23342C1.98696 8.62073 2.05997 9.00287 2.19615 9.36584C2.31622 9.67536 2.49953 9.95644 2.73437 10.1911C2.96921 10.4258 3.25042 10.6089 3.56003 10.7287C3.92116 10.8702 4.30379 10.949 4.69143 10.9617C5.19007 10.984 5.34799 10.9907 6.61246 10.9907C7.87693 10.9907 8.039 10.9907 8.5335 10.9617C8.92037 10.9541 9.30313 10.8807 9.6654 10.7447C9.97489 10.6247 10.256 10.4414 10.4907 10.2067C10.7254 9.97193 10.9087 9.69086 11.0288 9.38138C11.165 9.01892 11.238 8.63678 11.2457 8.24895C11.268 7.75083 11.2747 7.5929 11.2747 6.32792C11.2737 5.06345 11.2737 4.90293 11.2447 4.4074ZM6.60884 8.70358C5.28638 8.70358 4.21505 7.63225 4.21505 6.30979C4.21505 4.98733 5.28638 3.91601 6.60884 3.91601C7.24371 3.91601 7.85258 4.16821 8.3015 4.61713C8.75042 5.06605 9.00262 5.67492 9.00262 6.30979C9.00262 6.94466 8.75042 7.55353 8.3015 8.00246C7.85258 8.45138 7.24371 8.70358 6.60884 8.70358ZM9.0979 4.38565C8.78877 4.38565 8.53971 4.13607 8.53971 3.82746C8.53971 3.75419 8.55414 3.68164 8.58218 3.61395C8.61022 3.54626 8.65132 3.48476 8.70312 3.43295C8.75493 3.38114 8.81644 3.34004 8.88413 3.312C8.95182 3.28397 9.02437 3.26953 9.09764 3.26953C9.17091 3.26953 9.24346 3.28397 9.31115 3.312C9.37884 3.34004 9.44035 3.38114 9.49215 3.43295C9.54396 3.48476 9.58506 3.54626 9.6131 3.61395C9.64114 3.68164 9.65557 3.75419 9.65557 3.82746C9.65557 4.13607 9.40599 4.38565 9.0979 4.38565Z" fill="white"/>
<path d="M6.60866 7.8643C7.46744 7.8643 8.16361 7.16812 8.16361 6.30935C8.16361 5.45057 7.46744 4.75439 6.60866 4.75439C5.74989 4.75439 5.05371 5.45057 5.05371 6.30935C5.05371 7.16812 5.74989 7.8643 6.60866 7.8643Z" fill="white"/>
</svg>
